<svg xmlns="http://www.w3.org/2000/svg" version="1.1" xmlns:xlink="http://www.w3.org/1999/xlink"
     xmlns:svgjs="http://svgjs.dev/svgjs" width="1100" height="353" viewBox="0 0 1000 353">
    <g transform="matrix(1,0,0,1,-0.6060606060606233,0.09097602491684142)">
        <svg viewBox="0 0 396 140" data-background-color="#ffffff" preserveAspectRatio="xMidYMid meet" height="353"
             width="1000" xmlns="http://www.w3.org/2000/svg" xmlns:xlink="http://www.w3.org/1999/xlink">
            <g id="tight-bounds" transform="matrix(1,0,0,1,0.2400000000000091,-0.036081143026507334)">
                <svg viewBox="0 0 395.52 140.07216228605301" height="140.07216228605301" width="395.52">
                    <g>
                        <svg viewBox="0 0 650.5888046075414 230.40397608332518" height="140.07216228605301"
                             width="395.52">
                            <g transform="matrix(1,0,0,1,255.06880460754144,66.77429249990399)">
                                <svg viewBox="0 0 395.52 96.8553910835172" height="96.8553910835172" width="395.52">
                                    <g id="textblocktransform">
                                        <svg viewBox="0 0 395.52 96.8553910835172" height="96.8553910835172"
                                             width="395.52" id="textblock">
                                            <g>
                                                <svg viewBox="0 0 395.52 52.2391698525396" height="52.2391698525396"
                                                     width="395.52">
                                                    <g transform="matrix(1,0,0,1,0,0)">
                                                        <svg width="395.52"
                                                             viewBox="7.079999923706055 -35.060001373291016 268.20001220703125 35.43000030517578"
                                                             height="52.2391698525396" data-palette-color="#001f3f">
                                                            <g class="wordmark-text-0" data-fill-palette-color="primary"
                                                               id="text-0">
                                                                <path
                                                                    d="M33.96-24.76L33.96-24.76Q33.96-23.1 33.56-21.59 33.15-20.09 32.29-18.7 31.42-17.31 29.92-16.21 28.42-15.11 26.37-14.5L26.37-14.5 36.84 0 28.83 0 19.12-13.45 13.23-13.45 13.23 0 7.08 0 7.08-34.69 21.85-34.69Q22.95-34.69 23.86-34.63 24.78-34.57 26.09-34.34 27.39-34.11 28.41-33.72 29.42-33.33 30.51-32.57 31.59-31.81 32.31-30.8 33.03-29.79 33.5-28.23 33.96-26.68 33.96-24.76ZM20.04-29.05L13.23-29.05 13.23-19.12 18.9-19.12Q20.36-19.12 21.48-19.21 22.61-19.31 23.8-19.62 25-19.92 25.77-20.46 26.54-21 27.04-21.95 27.54-22.9 27.54-24.19L27.54-24.19Q27.54-29.05 20.04-29.05L20.04-29.05ZM70.51 0L46.16 0 46.16-34.69 70.51-34.69 70.51-29.03 52.34-29.03 52.34-20.7 69.16-20.7 69.16-15.04 52.34-15.04 52.34-5.66 70.51-5.66 70.51 0ZM81.49 0L81.49-34.69 88.96-34.69 100.48-14.77 112.18-34.69 119.28-34.69 119.28 0 113.13 0 113.13-25.95 103.27-9.94 97.46-9.94 87.64-25.95 87.64 0 81.49 0ZM147.99-35.06L147.99-35.06Q153.29-35.06 157.41-32.98 161.54-30.91 163.91-26.94 166.28-22.97 166.28-17.72L166.28-17.72Q166.28-12.4 163.96-8.29 161.64-4.17 157.44-1.9 153.24 0.37 147.8 0.37L147.8 0.37Q144.21 0.37 140.98-0.74 137.76-1.86 135.21-3.99 132.66-6.13 131.16-9.55 129.66-12.96 129.66-17.26L129.66-17.26Q129.66-22.61 132-26.67 134.34-30.74 138.49-32.9 142.64-35.06 147.99-35.06ZM151.2-28.99Q149.5-29.42 147.75-29.42 145.99-29.42 144.33-28.99 142.67-28.56 141.14-27.65 139.62-26.73 138.47-25.39 137.32-24.05 136.64-22.08 135.95-20.12 135.95-17.75L135.95-17.75Q135.95-12.11 139.45-8.69 142.94-5.27 148.16-5.27L148.16-5.27Q150.33-5.27 152.37-5.98 154.41-6.69 156.14-8.08 157.88-9.47 158.93-11.87 159.98-14.26 159.98-17.31L159.98-17.31Q159.98-19.8 159.25-21.86 158.51-23.93 157.3-25.29 156.1-26.66 154.5-27.61 152.9-28.56 151.2-28.99ZM171.65-29.03L171.65-34.69 202.99-34.69 202.99-29.03 190.4-29.03 190.4 0 184.24 0 184.24-29.03 171.65-29.03ZM234.53 0L210.19 0 210.19-34.69 234.53-34.69 234.53-29.03 216.37-29.03 216.37-20.7 233.19-20.7 233.19-15.04 216.37-15.04 216.37-5.66 234.53-5.66 234.53 0ZM272.4-24.76L272.4-24.76Q272.4-23.1 271.99-21.59 271.59-20.09 270.72-18.7 269.86-17.31 268.36-16.21 266.86-15.11 264.8-14.5L264.8-14.5 275.28 0 267.27 0 257.55-13.45 251.67-13.45 251.67 0 245.52 0 245.52-34.69 260.29-34.69Q261.39-34.69 262.3-34.63 263.22-34.57 264.52-34.34 265.83-34.11 266.84-33.72 267.86-33.33 268.94-32.57 270.03-31.81 270.75-30.8 271.47-29.79 271.93-28.23 272.4-26.68 272.4-24.76ZM258.48-29.05L251.67-29.05 251.67-19.12 257.33-19.12Q258.8-19.12 259.92-19.21 261.04-19.31 262.24-19.62 263.44-19.92 264.21-20.46 264.98-21 265.48-21.95 265.98-22.9 265.98-24.19L265.98-24.19Q265.98-29.05 258.48-29.05L258.48-29.05Z"
                                                                    fill="#FFFFFF"
                                                                    data-fill-palette-color="primary"></path>
                                                            </g>
                                                        </svg>
                                                    </g>
                                                </svg>
                                            </g>
                                            <g transform="matrix(1,0,0,1,0,64.57158411464773)">
                                                <svg viewBox="0 0 184.61287605214966 32.28380696886947"
                                                     height="32.28380696886947" width="184.61287605214966">
                                                    <g transform="matrix(1,0,0,1,0,0)">
                                                        <svg width="184.61287605214966"
                                                             viewBox="2.25 -36.5 255.8800048828125 44.75"
                                                             height="32.28380696886947"
                                                             data-palette-color="url(#cc99de8d-d0fd-4fa2-af46-0583f7867ad8)"></svg>
                                                    </g>
                                                </svg>
                                            </g>
                                        </svg>
                                    </g>
                                </svg>
                            </g>
                            <g>
                                <svg viewBox="0 0 230.40397608332518 230.40397608332518" height="230.40397608332518"
                                     width="230.40397608332518">
                                    <g>
                                        <svg></svg>
                                    </g>
                                    <g id="icon-0">
                                        <svg viewBox="0 0 230.40397608332518 230.40397608332518"
                                             height="230.40397608332518" width="230.40397608332518">
                                            <g></g>
                                            <g transform="matrix(1,0,0,1,55.023069241676005,45.715002194462784)">
                                                <svg viewBox="0 0 120.35783759997317 138.9739716943996"
                                                     height="138.9739716943996" width="120.35783759997317">
                                                    <g>
                                                        <svg xmlns="http://www.w3.org/2000/svg" xmlns:xlink="http://www.w3.org/1999/xlink" version="1.1" x="0" y="0" viewBox="9.54699993133545 3.2899999618530273 80.906005859375 93.41999816894531" enable-background="new 0 0 100 100" xml:space="preserve" height="138.9739716943996" width="120.35783759997317" class="icon-s-0" data-fill-palette-color="accent" id="s-0"></svg>
                                                    </g>
                                                </svg>
                                            </g>
                                        </svg>
                                    </g>
                                </svg>
                            </g>
                        </svg>
                    </g>
                    <defs></defs>
                    <mask id="3ec15ea5-eb72-4549-bb53-de8450e2b400">
                        <g id="SvgjsG1403">
                            <svg viewBox="0 0 395.52 140.07216228605301" height="140.07216228605301" width="395.52">
                                <g>
                                    <svg viewBox="0 0 650.5888046075414 230.40397608332518" height="140.07216228605301"
                                         width="395.52">
                                        <g transform="matrix(1,0,0,1,255.06880460754144,66.77429249990399)">
                                            <svg viewBox="0 0 395.52 96.8553910835172" height="96.8553910835172"
                                                 width="395.52">
                                                <g id="SvgjsG1402">
                                                    <svg viewBox="0 0 395.52 96.8553910835172" height="96.8553910835172"
                                                         width="395.52" id="SvgjsSvg1401">
                                                        <g>
                                                            <svg viewBox="0 0 395.52 52.2391698525396"
                                                                 height="52.2391698525396" width="395.52">
                                                                <g transform="matrix(1,0,0,1,0,0)">
                                                                    <svg width="395.52"
                                                                         viewBox="7.079999923706055 -35.060001373291016 268.20001220703125 35.43000030517578"
                                                                         height="52.2391698525396"
                                                                         data-palette-color="#001f3f">
                                                                        <g class="wordmark-text-0"
                                                                           data-fill-palette-color="primary"
                                                                           id="SvgjsG1400"></g>
                                                                    </svg>
                                                                </g>
                                                            </svg>
                                                        </g>
                                                        <g transform="matrix(1,0,0,1,0,64.57158411464773)">
                                                            <svg viewBox="0 0 184.61287605214966 32.28380696886947"
                                                                 height="32.28380696886947" width="184.61287605214966">
                                                                <g transform="matrix(1,0,0,1,0,0)">
                                                                    <svg width="184.61287605214966"
                                                                         viewBox="2.25 -36.5 255.8800048828125 44.75"
                                                                         height="32.28380696886947"
                                                                         data-palette-color="url(#cc99de8d-d0fd-4fa2-af46-0583f7867ad8)">
                                                                        <path
                                                                            d="M15.65 0.6L15.65 0.6Q11.75 0.6 8.75-1.18 5.75-2.95 4-5.98 2.25-9 2.25-12.75L2.25-12.75Q2.25-16.5 4-19.53 5.75-22.55 8.75-24.33 11.75-26.1 15.65-26.1L15.65-26.1Q19.55-26.1 22.58-24.33 25.6-22.55 27.33-19.53 29.05-16.5 29.05-12.75L29.05-12.75Q29.05-9 27.33-5.98 25.6-2.95 22.58-1.18 19.55 0.6 15.65 0.6ZM15.65-3.35L15.65-3.35Q18.3-3.35 20.25-4.6 22.2-5.85 23.3-7.98 24.4-10.1 24.4-12.75L24.4-12.75Q24.4-15.4 23.3-17.53 22.2-19.65 20.25-20.9 18.3-22.15 15.65-22.15L15.65-22.15Q13.05-22.15 11.08-20.9 9.1-19.65 8-17.53 6.9-15.4 6.9-12.75L6.9-12.75Q6.9-10.1 8-7.98 9.1-5.85 11.08-4.6 13.05-3.35 15.65-3.35ZM39.55 0L34.95 0 34.95-14.75Q34.95-18.15 36.47-20.7 38-23.25 40.7-24.68 43.4-26.1 46.85-26.1L46.85-26.1Q50.35-26.1 53.02-24.68 55.7-23.25 57.22-20.7 58.75-18.15 58.75-14.75L58.75-14.75 58.75 0 54.15 0 54.15-14.7Q54.15-17 53.12-18.68 52.1-20.35 50.42-21.25 48.75-22.15 46.85-22.15L46.85-22.15Q44.95-22.15 43.27-21.25 41.6-20.35 40.57-18.68 39.55-17 39.55-14.7L39.55-14.7 39.55 0ZM70.65 0L66.05 0 66.05-36.5 70.65-36.5 70.65 0ZM82.59 0L77.94 0 77.94-25.5 82.59-25.5 82.59 0ZM80.29-29.55L80.29-29.55Q79.04-29.55 78.12-30.48 77.19-31.4 77.19-32.65L77.19-32.65Q77.19-33.9 78.12-34.83 79.04-35.75 80.29-35.75L80.29-35.75Q81.54-35.75 82.47-34.83 83.39-33.9 83.39-32.65L83.39-32.65Q83.39-31.4 82.47-30.48 81.54-29.55 80.29-29.55ZM94.44 0L89.84 0 89.84-14.75Q89.84-18.15 91.37-20.7 92.89-23.25 95.59-24.68 98.29-26.1 101.74-26.1L101.74-26.1Q105.24-26.1 107.92-24.68 110.59-23.25 112.12-20.7 113.64-18.15 113.64-14.75L113.64-14.75 113.64 0 109.04 0 109.04-14.7Q109.04-17 108.02-18.68 106.99-20.35 105.32-21.25 103.64-22.15 101.74-22.15L101.74-22.15Q99.84-22.15 98.17-21.25 96.49-20.35 95.47-18.68 94.44-17 94.44-14.7L94.44-14.7 94.44 0ZM140.44 0L133.89 0Q129.69 0 126.44-1.58 123.19-3.15 121.36-6.03 119.54-8.9 119.54-12.75L119.54-12.75Q119.54-16.55 121.09-19.58 122.64-22.6 125.39-24.35 128.14-26.1 131.79-26.1L131.79-26.1Q135.74-26.1 138.36-24.4 140.99-22.7 142.29-19.83 143.59-16.95 143.59-13.4L143.59-13.4Q143.59-12.85 143.56-12.25 143.54-11.65 143.44-11.2L143.44-11.2 124.44-11.2Q124.69-8.85 125.99-7.23 127.29-5.6 129.31-4.78 131.34-3.95 133.79-3.95L133.79-3.95 140.44-3.95 140.44 0ZM124.39-14.45L124.39-14.45 138.94-14.45Q138.94-15.4 138.74-16.48 138.54-17.55 138.04-18.57 137.54-19.6 136.71-20.43 135.89-21.25 134.66-21.75 133.44-22.25 131.79-22.25L131.79-22.25Q130.04-22.25 128.71-21.58 127.39-20.9 126.44-19.78 125.49-18.65 124.99-17.25 124.49-15.85 124.39-14.45ZM160.03 8.25L155.18 8.25 155.18 4.3 159.23 4.3Q160.93 4.3 161.83 3.33 162.73 2.35 162.73 0.7L162.73 0.7 162.73-25.5 167.33-25.5 167.33 1Q167.33 4.35 165.38 6.3 163.43 8.25 160.03 8.25L160.03 8.25ZM164.98-29.6L164.98-29.6Q163.73-29.6 162.81-30.53 161.88-31.45 161.88-32.7L161.88-32.7Q161.88-33.95 162.81-34.88 163.73-35.8 164.98-35.8L164.98-35.8Q166.23-35.8 167.16-34.88 168.08-33.95 168.08-32.7L168.08-32.7Q168.08-31.45 167.16-30.53 166.23-29.6 164.98-29.6ZM186.58 0.6L186.58 0.6Q182.68 0.6 179.68-1.18 176.68-2.95 174.93-5.98 173.18-9 173.18-12.75L173.18-12.75Q173.18-16.5 174.93-19.53 176.68-22.55 179.68-24.33 182.68-26.1 186.58-26.1L186.58-26.1Q190.48-26.1 193.51-24.33 196.53-22.55 198.26-19.53 199.98-16.5 199.98-12.75L199.98-12.75Q199.98-9 198.26-5.98 196.53-2.95 193.51-1.18 190.48 0.6 186.58 0.6ZM186.58-3.35L186.58-3.35Q189.23-3.35 191.18-4.6 193.13-5.85 194.23-7.98 195.33-10.1 195.33-12.75L195.33-12.75Q195.33-15.4 194.23-17.53 193.13-19.65 191.18-20.9 189.23-22.15 186.58-22.15L186.58-22.15Q183.98-22.15 182.01-20.9 180.03-19.65 178.93-17.53 177.83-15.4 177.83-12.75L177.83-12.75Q177.83-10.1 178.93-7.98 180.03-5.85 182.01-4.6 183.98-3.35 186.58-3.35ZM218.78 0.6L218.78 0.6Q215.08 0.6 212.13-1 209.18-2.6 207.45-5.63 205.73-8.65 205.73-12.9L205.73-12.9 205.73-36.5 210.33-36.5 210.33-20.95 210.43-20.95Q211.28-22.5 212.65-23.65 214.03-24.8 215.8-25.45 217.58-26.1 219.53-26.1L219.53-26.1Q223.08-26.1 225.88-24.5 228.68-22.9 230.3-19.98 231.93-17.05 231.93-13.05L231.93-13.05Q231.93-9.9 230.95-7.38 229.98-4.85 228.23-3.05 226.48-1.25 224.08-0.33 221.68 0.6 218.78 0.6ZM218.78-3.35L218.78-3.35Q221.13-3.35 223.05-4.5 224.98-5.65 226.13-7.75 227.28-9.85 227.28-12.75L227.28-12.75Q227.28-15.55 226.15-17.65 225.03-19.75 223.13-20.95 221.23-22.15 218.83-22.15L218.83-22.15Q216.48-22.15 214.55-21 212.63-19.85 211.5-17.73 210.38-15.6 210.38-12.7L210.38-12.7Q210.38-9.85 211.5-7.75 212.63-5.65 214.55-4.5 216.48-3.35 218.78-3.35ZM250.23 0L237.48 0 237.48-3.95 249.68-3.95Q250.88-3.95 251.75-4.48 252.63-5 253.08-5.85 253.53-6.7 253.53-7.65L253.53-7.65Q253.53-8.55 253.13-9.33 252.73-10.1 251.9-10.58 251.08-11.05 249.93-11.05L249.93-11.05 244.78-11.05Q242.33-11.05 240.5-11.88 238.68-12.7 237.65-14.3 236.63-15.9 236.63-18.2L236.63-18.2Q236.63-20.15 237.58-21.8 238.53-23.45 240.23-24.48 241.93-25.5 244.13-25.5L244.13-25.5 255.88-25.5 255.88-21.55 244.58-21.55Q243.03-21.55 242.13-20.6 241.23-19.65 241.23-18.35L241.23-18.35Q241.23-17.1 242.15-16.18 243.08-15.25 244.78-15.25L244.78-15.25 249.68-15.25Q252.43-15.25 254.3-14.38 256.18-13.5 257.15-11.85 258.13-10.2 258.13-7.8L258.13-7.8Q258.13-5.75 257.13-3.98 256.13-2.2 254.35-1.1 252.58 0 250.23 0L250.23 0Z"
                                                                            opacity="1" transform="matrix(1,0,0,1,0,0)"
                                                                            fill="#FFFFFF" class="slogan-text-1"
                                                                            id="SvgjsPath1399"></path>
                                                                    </svg>
                                                                </g>
                                                            </svg>
                                                        </g>
                                                    </svg>
                                                </g>
                                            </svg>
                                        </g>
                                        <g>
                                            <svg viewBox="0 0 230.40397608332518 230.40397608332518"
                                                 height="230.40397608332518" width="230.40397608332518">
                                                <g>
                                                    <svg></svg>
                                                </g>
                                                <g id="SvgjsG1398">
                                                    <svg viewBox="0 0 230.40397608332518 230.40397608332518"
                                                         height="230.40397608332518" width="230.40397608332518">
                                                        <g></g>
                                                        <g transform="matrix(1,0,0,1,55.023069241676005,45.715002194462784)">
                                                            <svg viewBox="0 0 120.35783759997317 138.9739716943996"
                                                                 height="138.9739716943996" width="120.35783759997317">
                                                                <g>
                                                                    <svg xmlns="http://www.w3.org/2000/svg" xmlns:xlink="http://www.w3.org/1999/xlink" version="1.1" x="0" y="0" viewBox="9.54699993133545 3.2899999618530273 80.906005859375 93.41999816894531" enable-background="new 0 0 100 100" xml:space="preserve" height="138.9739716943996" width="120.35783759997317" class="icon-s-0" data-fill-palette-color="accent" id="SvgjsSvg1397"></svg>
                                                                </g>
                                                            </svg>
                                                        </g>
                                                    </svg>
                                                </g>
                                            </svg>
                                        </g>
                                    </svg>
                                </g>
                                <defs>
                                    <mask></mask>
                                </defs>
                            </svg>
                        </g>
                    </mask>
                    <linearGradient x1="0" x2="1" y1="0.5" y2="0.5" id="cc99de8d-d0fd-4fa2-af46-0583f7867ad8">
                        <stop stop-color="#FFFFFF" offset="0"></stop>
                        <stop stop-color="#FFFFFF" offset="1"></stop>
                    </linearGradient>
                    <rect width="395.5199890136719" height="140.07215881347656"
                          fill="url(#cc99de8d-d0fd-4fa2-af46-0583f7867ad8)"
                          mask="url(#3ec15ea5-eb72-4549-bb53-de8450e2b400)" data-fill-palette-color="secondary"></rect>
                    <mask id="6dd3e5e5-afa5-4fdc-a50e-c8a5c25c9ce5">
                        <g id="SvgjsG1416">
                            <svg viewBox="0 0 395.52 140.07216228605301" height="140.07216228605301" width="395.52">
                                <g>
                                    <svg viewBox="0 0 650.5888046075414 230.40397608332518" height="140.07216228605301"
                                         width="395.52">
                                        <g transform="matrix(1,0,0,1,255.06880460754144,66.77429249990399)">
                                            <svg viewBox="0 0 395.52 96.8553910835172" height="96.8553910835172"
                                                 width="395.52">
                                                <g id="SvgjsG1415">
                                                    <svg viewBox="0 0 395.52 96.8553910835172" height="96.8553910835172"
                                                         width="395.52" id="SvgjsSvg1414">
                                                        <g>
                                                            <svg viewBox="0 0 395.52 52.2391698525396"
                                                                 height="52.2391698525396" width="395.52">
                                                                <g transform="matrix(1,0,0,1,0,0)">
                                                                    <svg width="395.52"
                                                                         viewBox="7.079999923706055 -35.060001373291016 268.20001220703125 35.43000030517578"
                                                                         height="52.2391698525396"
                                                                         data-palette-color="#001f3f">
                                                                        <g class="wordmark-text-0"
                                                                           data-fill-palette-color="primary"
                                                                           id="SvgjsG1413"></g>
                                                                    </svg>
                                                                </g>
                                                            </svg>
                                                        </g>
                                                        <g transform="matrix(1,0,0,1,0,64.57158411464773)">
                                                            <svg viewBox="0 0 184.61287605214966 32.28380696886947"
                                                                 height="32.28380696886947" width="184.61287605214966">
                                                                <g transform="matrix(1,0,0,1,0,0)">
                                                                    <svg width="184.61287605214966"
                                                                         viewBox="2.25 -36.5 255.8800048828125 44.75"
                                                                         height="32.28380696886947"
                                                                         data-palette-color="url(#cc99de8d-d0fd-4fa2-af46-0583f7867ad8)"></svg>
                                                                </g>
                                                            </svg>
                                                        </g>
                                                    </svg>
                                                </g>
                                            </svg>
                                        </g>
                                        <g>
                                            <svg viewBox="0 0 230.40397608332518 230.40397608332518"
                                                 height="230.40397608332518" width="230.40397608332518">
                                                <g>
                                                    <svg></svg>
                                                </g>
                                                <g id="SvgjsG1412">
                                                    <svg viewBox="0 0 230.40397608332518 230.40397608332518"
                                                         height="230.40397608332518" width="230.40397608332518">
                                                        <g>
                                                            <path
                                                                d="M0 115.202c0-63.624 51.578-115.202 115.202-115.202 63.624 0 115.202 51.578 115.202 115.202 0 63.624-51.578 115.202-115.202 115.202-63.624 0-115.202-51.578-115.202-115.202zM115.202 225.693c61.023 0 110.491-49.469 110.491-110.491 0-61.023-49.469-110.491-110.491-110.491-61.023 0-110.491 49.469-110.491 110.491 0 61.023 49.469 110.491 110.491 110.491z"
                                                                fill="white" stroke="transparent"></path>
                                                        </g>
                                                        <g transform="matrix(1,0,0,1,55.023069241676005,45.715002194462784)">
                                                            <svg viewBox="0 0 120.35783759997317 138.9739716943996"
                                                                 height="138.9739716943996" width="120.35783759997317">
                                                                <g>
                                                                    <svg xmlns="http://www.w3.org/2000/svg" xmlns:xlink="http://www.w3.org/1999/xlink" version="1.1" x="0" y="0" viewBox="9.54699993133545 3.2899999618530273 80.906005859375 93.41999816894531" enable-background="new 0 0 100 100" xml:space="preserve" height="138.9739716943996" width="120.35783759997317" class="icon-s-0" data-fill-palette-color="accent" id="SvgjsSvg1411"><g fill="white"><path d="M31.112 39.094v21.812L49.999 71.81l18.89-10.903V39.094l-18.89-10.905L31.112 39.094zM60.925 56.308l-10.926 6.307-10.924-6.307V43.692l10.924-6.308 10.926 6.308V56.308z" fill="white"></path><path
                                                                        d="M49.999 3.29L9.547 26.646v46.709L49.999 96.71l40.454-23.355V26.646L49.999 3.29zM82.19 68.584L49.999 87.169 17.811 68.584v-37.17l32.188-18.585L82.19 31.414V68.584z"
                                                                        fill="white"></path><path
                                                                        d="M20.368 32.89v34.218l29.631 17.108 29.634-17.108V32.89L49.999 15.782 20.368 32.89zM71.446 62.383l-21.447 12.38-21.444-12.38V37.618l21.444-12.382 21.447 12.382V62.383z"
                                                                        fill="white"></path></g></svg>
                                                                </g>
                                                            </svg>
                                                        </g>
                                                    </svg>
                                                </g>
                                            </svg>
                                        </g>
                                    </svg>
                                </g>
                                <defs>
                                    <mask></mask>
                                </defs>
                                <mask>
                                    <g id="SvgjsG1410">
                                        <svg viewBox="0 0 395.52 140.07216228605301" height="140.07216228605301"
                                             width="395.52">
                                            <g>
                                                <svg viewBox="0 0 650.5888046075414 230.40397608332518"
                                                     height="140.07216228605301" width="395.52">
                                                    <g transform="matrix(1,0,0,1,255.06880460754144,66.77429249990399)">
                                                        <svg viewBox="0 0 395.52 96.8553910835172"
                                                             height="96.8553910835172" width="395.52">
                                                            <g id="SvgjsG1409">
                                                                <svg viewBox="0 0 395.52 96.8553910835172"
                                                                     height="96.8553910835172" width="395.52"
                                                                     id="SvgjsSvg1408">
                                                                    <g>
                                                                        <svg viewBox="0 0 395.52 52.2391698525396"
                                                                             height="52.2391698525396" width="395.52">
                                                                            <g transform="matrix(1,0,0,1,0,0)">
                                                                                <svg width="395.52"
                                                                                     viewBox="7.079999923706055 -35.060001373291016 268.20001220703125 35.43000030517578"
                                                                                     height="52.2391698525396"
                                                                                     data-palette-color="#001f3f">
                                                                                    <g class="wordmark-text-0"
                                                                                       data-fill-palette-color="primary"
                                                                                       id="SvgjsG1407"></g>
                                                                                </svg>
                                                                            </g>
                                                                        </svg>
                                                                    </g>
                                                                    <g transform="matrix(1,0,0,1,0,64.57158411464773)">
                                                                        <svg
                                                                            viewBox="0 0 184.61287605214966 32.28380696886947"
                                                                            height="32.28380696886947"
                                                                            width="184.61287605214966">
                                                                            <g transform="matrix(1,0,0,1,0,0)">
                                                                                <svg width="184.61287605214966"
                                                                                     viewBox="2.25 -36.5 255.8800048828125 44.75"
                                                                                     height="32.28380696886947"
                                                                                     data-palette-color="url(#cc99de8d-d0fd-4fa2-af46-0583f7867ad8)"></svg>
                                                                            </g>
                                                                        </svg>
                                                                    </g>
                                                                </svg>
                                                            </g>
                                                        </svg>
                                                    </g>
                                                    <g>
                                                        <svg viewBox="0 0 230.40397608332518 230.40397608332518"
                                                             height="230.40397608332518" width="230.40397608332518">
                                                            <g>
                                                                <svg></svg>
                                                            </g>
                                                            <g id="SvgjsG1405">
                                                                <svg viewBox="0 0 230.40397608332518 230.40397608332518"
                                                                     height="230.40397608332518"
                                                                     width="230.40397608332518">
                                                                    <g></g>
                                                                    <g transform="matrix(1,0,0,1,55.023069241676005,45.715002194462784)">
                                                                        <svg
                                                                            viewBox="0 0 120.35783759997317 138.9739716943996"
                                                                            height="138.9739716943996"
                                                                            width="120.35783759997317">
                                                                            <g>
                                                                                <svg xmlns="http://www.w3.org/2000/svg" xmlns:xlink="http://www.w3.org/1999/xlink" version="1.1" x="0" y="0" viewBox="9.54699993133545 3.2899999618530273 80.906005859375 93.41999816894531" enable-background="new 0 0 100 100" xml:space="preserve" height="138.9739716943996" width="120.35783759997317" class="icon-s-0" data-fill-palette-color="accent" id="SvgjsSvg1404"></svg>
                                                                            </g>
                                                                        </svg>
                                                                    </g>
                                                                </svg>
                                                            </g>
                                                        </svg>
                                                    </g>
                                                </svg>
                                            </g>
                                            <defs>
                                                <mask></mask>
                                            </defs>
                                        </svg>
                                    </g>
                                </mask>
                            </svg>
                        </g>
                    </mask>
                    <linearGradient x1="0" x2="1" y1="0.5" y2="0.5" id="c024ee36-42d5-4006-a496-fb43c90ceef5">
                        <stop stop-color="#f00b51" offset="0"></stop>
                        <stop stop-color="#730062" offset="1"></stop>
                    </linearGradient>
                    <rect width="395.5199890136719" height="140.07215881347656"
                          fill="url(#c024ee36-42d5-4006-a496-fb43c90ceef5)"
                          mask="url(#6dd3e5e5-afa5-4fdc-a50e-c8a5c25c9ce5)" data-fill-palette-color="accent"></rect>
                </svg>
                <rect width="395.52" height="140.07216228605301" fill="none" stroke="none" visibility="hidden"></rect>
            </g>
        </svg>
    </g>
</svg>
